# xmcd
#
# Track frame offsets:
#	150
#	17075
#	27655
#	40983
#	53886
#	63361
#	79249
#	94442
#	105412
#	116302
#	129320
#	143365
#	155125
#	168495
#	185268
#	201711
#	220249
#	231324
#	248424
#	265774
#	278392
#	293790
#
# Disc length: 4154 seconds
#
# Revision: 1
# Processed by: cddbd v1.5.2PL0 Copyright (c) Steve Scherf et al.
# Submitted via: audiograbber 1.83.01
#
DISCID=39103816
DTITLE=Various Artist - Halland's Country Hits Volume 2
DYEAR=1900
DGENRE=
TTITLE0=George Strait - I've Come To Expect It From You
TTITLE1=George Strait - If You Ain't Lovin' (You Ain't...)
TTITLE2=George Strait - If You're Thinking...Want...Stranger
TTITLE3=George Strait - It Ain't Cool To Be Crazy About You
TTITLE4=George Strait - Right Or Wrong
TTITLE5=George Strait - The Chill Of An Early Fall
TTITLE6=George Strait - The Cowboy Rides Away
TTITLE7=George Strait - Unwound
TTITLE8=Marty Stuart - Till I Found You
TTITLE9=Marty Stuart - Western Girls
TTITLE10=Sweethearts Of The Rodeo - Midnight Girl-Sunset Town
TTITLE11=Sweethearts Of The Rodeo - Satisfy You
TTITLE12=Randy Travis - Diggin' Up Bones
TTITLE13=Randy Travis - Hard Rock Bottom Of Your Heart
TTITLE14=Randy Travis - I Told You So
TTITLE15=Randy Travis - No Place Like Home
TTITLE16=Randy Travis - Too Gone For Too Long
TTITLE17=Travis Tritt - Anymore
TTITLE18=Travis Tritt - Nothing Short Of Dying
TTITLE19=Tanya Tucker - Can I See You Tonight
TTITLE20=Tanya Tucker - Highway Robbery
TTITLE21=Tanya Tucker - Texas (Wen I Die)
EXTD=
EXTT0=
EXTT1=
EXTT2=
EXTT3=
EXTT4=
EXTT5=
EXTT6=
EXTT7=
EXTT8=
EXTT9=
EXTT10=
EXTT11=
EXTT12=
EXTT13=
EXTT14=
EXTT15=
EXTT16=
EXTT17=
EXTT18=
EXTT19=
EXTT20=
EXTT21=
PLAYORDER=
